<?xml version="1.0" encoding="UTF-8"?>
<svg width="20px" height="20px" viewBox="0 0 20 20" version="1.1" xmlns="http://www.w3.org/2000/svg" xmlns:xlink="http://www.w3.org/1999/xlink">
    <!-- Generator: Sketch 48.2 (47327) - http://www.bohemiancoding.com/sketch -->
    <title>Combined Shape</title>
    <desc>Created with Sketch.</desc>
    <defs></defs>
    <g id="Page-1" stroke="none" stroke-width="1" fill="none" fill-rule="evenodd">
        <path d="M19.7312001,17.1003734 C20.0908834,17.4600567 20.0908834,18.0561034 19.7312001,18.4157867 L18.4157867,19.7312001 C18.0561034,20.0883142 17.4600567,20.0908834 17.1003734,19.7312001 L11.9800242,14.6134201 C10.786636,15.3417891 9.39607969,15.7849601 7.89248003,15.7849601 C3.53453619,15.7849601 0,12.2497867 0,7.89248003 C0,3.53453619 3.53453619,0 7.89248003,0 C12.2497867,0 15.7849601,3.53453619 15.7849601,7.89248003 C15.7849601,9.39607969 15.3417891,10.786636 14.6108509,11.9800242 L19.7312001,17.1003734 Z M7.89248003,13.1541334 C10.7982075,13.1541334 13.1541334,10.7982075 13.1541334,7.89248003 C13.1541334,4.98675252 10.7982075,2.63082668 7.89248003,2.63082668 C4.98675252,2.63082668 2.63082668,4.98675252 2.63082668,7.89248003 C2.63082668,10.7982075 4.98675252,13.1541334 7.89248003,13.1541334 Z" id="Combined-Shape" fill="#FFFFFF"></path>
    </g>
</svg>